<?xml version="1.0" encoding="UTF-8" standalone="no"?>
<!-- Created with Inkscape (http://www.inkscape.org/) -->

<svg
   xmlns:dc="http://purl.org/dc/elements/1.1/"
   xmlns:cc="http://creativecommons.org/ns#"
   xmlns:rdf="http://www.w3.org/1999/02/22-rdf-syntax-ns#"
   xmlns:svg="http://www.w3.org/2000/svg"
   xmlns="http://www.w3.org/2000/svg"
   xmlns:sodipodi="http://sodipodi.sourceforge.net/DTD/sodipodi-0.dtd"
   xmlns:inkscape="http://www.inkscape.org/namespaces/inkscape"
   width="481.97458"
   height="481.97458"
   viewBox="0 0 481.97459 481.97459"
   id="svg2"
   version="1.1"
   inkscape:version="0.91 r"
   sodipodi:docname="logoStorianv2.svg">
  <defs
     id="defs4">
    <inkscape:path-effect
       effect="spiro"
       id="path-effect4284"
       is_visible="true" />
    <inkscape:path-effect
       effect="spiro"
       id="path-effect4276"
       is_visible="true" />
    <inkscape:path-effect
       effect="spiro"
       id="path-effect4245"
       is_visible="true" />
    <inkscape:path-effect
       effect="spiro"
       id="path-effect4241"
       is_visible="true" />
  </defs>
  <sodipodi:namedview
     id="base"
     pagecolor="#ffffff"
     bordercolor="#666666"
     borderopacity="1.0"
     inkscape:pageopacity="0"
     inkscape:pageshadow="2"
     inkscape:zoom="1.2617589"
     inkscape:cx="201.69541"
     inkscape:cy="252.22205"
     inkscape:document-units="px"
     inkscape:current-layer="g4328"
     showgrid="false"
     inkscape:window-width="1600"
     inkscape:window-height="876"
     inkscape:window-x="0"
     inkscape:window-y="24"
     inkscape:window-maximized="1"
     fit-margin-top="0"
     fit-margin-left="0"
     fit-margin-right="0"
     fit-margin-bottom="0"
     units="px">
    <inkscape:grid
       type="xygrid"
       id="grid4144"
       originx="-128.24367"
       originy="-316.57056" />
  </sodipodi:namedview>
  <metadata
     id="metadata7">
    <rdf:RDF>
      <cc:Work
         rdf:about="">
        <dc:format>image/svg+xml</dc:format>
        <dc:type
           rdf:resource="http://purl.org/dc/dcmitype/StillImage" />
        <dc:title></dc:title>
      </cc:Work>
    </rdf:RDF>
  </metadata>
  <g
     inkscape:groupmode="layer"
     id="layer4"
     inkscape:label="circle"
     style="display:inline"
     transform="translate(-128.24367,-253.817)">
    <ellipse
       style="fill:#ca6565;fill-opacity:1;stroke:none;stroke-width:0;stroke-linecap:round;stroke-linejoin:miter;stroke-miterlimit:4;stroke-dasharray:none;stroke-dashoffset:0;stroke-opacity:1"
       id="path4365"
       cx="369.23096"
       cy="493.89212"
       rx="240.9873"
       ry="233.89944" />
    <path
       style="fill:#903737;fill-opacity:1;fill-rule:evenodd;stroke:none;stroke-width:1px;stroke-linecap:butt;stroke-linejoin:miter;stroke-opacity:1"
       d="M 542.6591,374.57873 223.44034,608.8131 341.48722,726.08263 a 240.9873,233.89944 0 0 0 27.74414,1.70899 240.9873,233.89944 0 0 0 240.98633,-233.90039 240.9873,233.89944 0 0 0 -7.78516,-58.25586 L 542.6591,374.57873 Z"
       id="path4424"
       inkscape:connector-curvature="0" />
  </g>
  <g
     inkscape:groupmode="layer"
     id="layer2"
     inkscape:label="hojas"
     transform="translate(-128.24367,-253.817)" />
  <g
     inkscape:label="cubierta"
     inkscape:groupmode="layer"
     id="layer1"
     transform="translate(-128.24367,-253.817)">
    <path
       style="fill:#000000;fill-opacity:0;stroke:none;stroke-width:1.03400004;stroke-miterlimit:4;stroke-dasharray:none;stroke-opacity:1"
       id="path4146"
       d="m 262.21497,535.47744 c 0.12296,-2.11684 -0.014,-4.24278 0.81297,-6.25226 0.26454,-0.6428 0.62786,-1.24037 0.94179,-1.86055 0.4559,-0.65246 0.86238,-1.3424 1.36771,-1.95737 5.96465,-7.25875 17.1133,-12.40007 24.59084,-16.69942 6.09357,-2.95767 12.70296,-4.49575 19.44411,-4.79547 6.82252,0.286 11.0942,3.34195 15.82215,7.94916 4.98476,5.52816 6.37843,11.41704 7.29109,18.57775 0.53818,6.11986 0.88421,12.26918 -0.008,18.36566 -0.37332,2.51327 -1.53118,4.68414 -2.86581,6.78763 -0.52476,0.63931 -0.71881,1.27976 -0.77065,2.09608 -0.0549,1.39347 -0.0695,2.78886 -0.0821,4.18334 -0.0641,2.1805 -0.0145,4.35999 0.0246,6.54003 0.008,0.2354 0.0142,0.47084 0.0231,0.70619 0.0104,0.27417 0.0812,1.09349 0.0796,1.09428 -12.25089,6.07616 -12.2961,10.28076 -12.0628,5.30391 0.0135,-1.36415 0.0346,-2.72819 0.0454,-4.09239 0.0117,-1.77911 0.0127,-3.55828 0.0137,-5.33743 0.0292,-2.8698 0.11103,-5.73875 0.15439,-8.60865 0.006,-2.82041 0.11008,-6.04615 -1.81784,-8.35676 -0.33055,-0.39616 -0.75436,-0.70412 -1.13154,-1.05618 -3.44331,-2.34595 -7.47111,-3.59847 -11.46184,-4.65491 -4.04142,-0.96365 -8.12633,-1.61548 -12.26461,-1.95389 -4.08676,-0.26797 -8.16088,-0.46875 -12.20254,0.26609 -1.79573,0.4765 -2.67601,0.64305 -4.38468,1.35662 -0.61398,0.2564 -2.36742,1.21319 -1.79251,0.87823 17.7622,-10.34878 11.12466,-7.08404 8.0179,-4.04361 -1.34447,1.47216 -1.34075,3.44375 -1.39079,5.32609 -0.0255,1.14134 0.0323,2.28165 0.11184,3.41964 0,0 -11.97,6.13763 -11.97,6.13763 l 0,0 c 0.0193,-1.18057 0.0329,-2.36138 0.0147,-3.54208 -4.8e-4,-2.09398 -0.13864,-4.34699 0.97656,-6.20601 5.0984,-6.04619 13.14243,-9.31565 20.72253,-11.06269 4.15294,-0.55811 8.34311,-0.44195 12.51499,-0.0918 4.14638,0.44863 8.2486,1.18605 12.29369,2.20884 4.17478,1.19232 8.4297,2.52175 11.97543,5.10989 0.42604,0.43802 0.90032,0.83383 1.27813,1.31408 2.0154,2.5619 2.16536,5.93057 2.09802,9.04668 0.0432,2.81748 0.12555,5.63395 0.15438,8.45133 10e-4,1.77449 0.002,3.54899 0.0137,5.32344 0.0107,1.34872 0.0319,2.69728 0.0456,4.04595 0.24968,5.05444 0.17743,0.58592 -12.06264,6.98884 -0.0575,0.0301 0.0279,-0.12704 0.0338,-0.19163 0.0106,-0.11704 0.0438,-0.94082 0.0453,-0.98295 0.009,-0.24299 0.015,-0.48606 0.0224,-0.72909 0.0358,-2.18301 0.0829,-4.36567 0.003,-6.54875 -0.0247,-1.38709 -0.0776,-2.77348 -0.10232,-4.16061 0.0228,-0.93776 -0.0867,-2.00828 0.51023,-2.78945 1.44932,-2.0589 3.09812,-3.9788 3.61547,-6.53751 1.29511,-5.98703 1.04789,-12.10496 0.49552,-18.17844 -0.83888,-6.69538 -2.15163,-12.70558 -6.91537,-17.80855 -0.77634,-0.73156 -1.50628,-1.51572 -2.32901,-2.19468 -3.72617,-3.07509 -8.18671,-4.82536 -13.03039,-4.81504 -6.5592,0.45059 -12.975,1.94987 -18.82774,5.04047 2.4028,-1.41441 4.77308,-2.8856 7.20841,-4.24324 1.10603,-0.61659 -2.17594,1.29939 -3.21807,2.01871 -2.50171,1.72679 -5.08199,3.7444 -7.11094,6.02589 -0.4887,0.54954 -0.89532,1.16692 -1.34298,1.75037 -1.5011,2.62308 -1.97727,4.30214 -1.58305,7.30652 0,0 -12.03479,6.13203 -12.03479,6.13203 z"
       inkscape:connector-curvature="0" />
    <path
       style="fill:#000000;fill-opacity:0;stroke:none;stroke-width:1.03400004;stroke-miterlimit:4;stroke-dasharray:none;stroke-opacity:1"
       id="path4148"
       d="m 281.69446,529.81861 c 6.42647,0.31863 12.86321,0.27839 19.29374,0.47768 5.91922,0.27792 11.81097,1.56285 16.68761,5.10921 3.32339,2.41682 3.88722,3.54317 6.49917,6.74297 3.96367,5.82738 7.0736,12.19776 9.18518,18.92398 1.20402,3.83529 1.7633,6.66628 2.65373,10.58521 1.60168,8.18995 3.21489,16.43072 6.18836,24.25136 0.91748,1.85049 0.44687,1.02977 1.36614,2.48782 0,0 -11.49615,6.58651 -11.49615,6.58651 l 0,0 c -0.78009,-1.72325 -0.38465,-0.76836 -1.14779,-2.88032 -2.16725,-8.18565 -3.64103,-16.53696 -5.35505,-24.8248 -2.41409,-10.51793 -5.22243,-20.08072 -11.75576,-28.90342 -2.63001,-3.04068 -3.13584,-4.02884 -6.42131,-6.29747 -4.81921,-3.32767 -10.52355,-4.45338 -16.28016,-4.64237 -6.7527,-0.11999 -13.51068,-0.0346 -20.25856,0.25998 0,0 10.84085,-7.87634 10.84085,-7.87634 z"
       inkscape:connector-curvature="0" />
    <path
       style="fill:#000000;fill-opacity:0;stroke:none;stroke-width:5.76900005;stroke-miterlimit:4;stroke-dasharray:none;stroke-opacity:1"
       id="path4150"
       d="m 264.22881,535.9193 c 6.83403,-5.14378 14.32129,-8.56586 22.30632,-11.18139 10.64513,-3.47255 21.84473,-3.99228 32.93424,-4.54068 10.87119,0.0584 22.52662,0.31341 32.34149,5.6453 1.41347,0.76787 2.68237,1.77623 4.02355,2.66434 2.90991,2.7971 3.76667,3.30186 5.98539,6.69512 3.49011,5.33769 5.65508,11.58475 7.97057,17.48038 3.41041,8.32845 6.20635,16.88561 9.21316,25.36278 1.50192,4.08336 2.81862,8.28722 4.91688,12.12196 1.34384,2.456 1.85588,2.92961 3.60461,5.20395 4.26666,5.25229 9.23159,9.85853 13.98315,14.65451 2.49075,2.51404 4.93121,5.07743 7.40326,7.60986 2.362,2.29883 2.70614,2.66422 4.93429,4.73393 0.80425,0.74707 1.81389,1.78171 2.84799,2.28528 1.13133,0.55093 2.38678,0.62487 3.60381,0.80981 0.96897,0.0758 1.93657,0.17176 2.9069,0.22744 4.66511,0.26768 9.25445,0.44109 13.881,1.20813 4.45898,0.73926 7.14232,1.47086 11.55075,2.53209 9.52365,2.69175 18.89594,6.0762 27.7084,10.60082 5.14672,3.01093 10.14341,6.30423 14.9403,9.8474 4.79219,3.64482 9.01985,7.86468 11.94441,13.14957 1.17328,2.71523 2.9623,6.82235 0.67323,9.53137 -0.69203,0.81898 -1.68702,1.32381 -2.53053,1.98572 -5.19327,2.42787 -10.15446,5.43154 -15.57981,7.28361 -1.88495,0.64347 -18.69956,1.05774 -18.75447,1.0564 -10.74439,-0.26226 -19.81546,-1.48909 -30.36013,-3.9929 -5.85727,-1.39079 -11.56959,-3.33353 -17.35438,-5.00029 -5.69604,-2.2224 -11.48552,-4.21879 -17.08813,-6.66719 -14.43242,-6.30712 -28.97707,-14.07752 -40.16054,-25.41318 -8.46144,-8.57659 -9.02493,-11.4659 -14.54014,-21.90118 -1.3741,-4.31264 -3.0447,-8.54181 -4.12231,-12.93793 -2.32085,-9.4679 -3.46451,-20.78615 -4.13741,-30.43355 -0.69761,-10.00167 -1.20673,-26.38334 -0.75951,-36.23493 0.3065,-6.75195 1.16257,-13.46773 1.74385,-20.20159 4.79985,-38.3774 19.48493,-74.31712 31.83546,-110.66525 2.80877,-8.81378 3.88903,-11.8966 6.25548,-20.34625 1.29922,-4.63903 3.71254,-10.80794 1.40076,-15.63364 -0.57335,-1.19681 -1.601,-2.11687 -2.40151,-3.1753 -1.35084,-0.97242 -2.62359,-2.06373 -4.05254,-2.91724 -6.59416,-3.93871 -14.12768,-6.34995 -21.244,-9.10939 -11.24824,-4.36164 -7.37562,-2.825 -18.80176,-7.68941 -15.23688,-7.11728 -30.39804,-15.12678 -43.26331,-26.10519 -1.97999,-1.6896 -3.80176,-3.55626 -5.70264,-5.3344 -3.77586,-4.1273 -7.40712,-8.57375 -9.71014,-13.72975 -0.5289,-1.18409 -0.84009,-2.45387 -1.26013,-3.68081 0,0 10.87957,-5.95123 10.87957,-5.95123 l 0,0 c 0.31437,1.20698 0.51713,2.44869 0.94312,3.62094 1.8816,5.17786 5.14968,9.71441 8.62663,13.91775 1.7738,1.81666 3.44985,3.73419 5.3214,5.44998 9.48528,8.6958 21.38924,15.85945 32.85183,21.6044 3.21777,1.61272 6.53103,3.02743 9.79654,4.54115 10.62692,4.29988 8.62079,3.61996 19.17447,7.38532 7.39366,2.63792 15.54162,4.85997 22.4544,8.66618 1.5984,0.88009 3.01887,2.05041 4.52831,3.07562 0.89918,1.20752 2.09366,2.24344 2.69755,3.62255 2.27412,5.19337 -1.05159,12.23732 -2.73576,16.97601 -2.71652,7.64338 -4.94605,13.3983 -7.87317,21.13495 -13.93156,36.14097 -29.00297,72.35398 -33.40701,111.18734 -0.45515,6.64655 -1.1951,13.27972 -1.36544,19.93966 -0.2474,9.67257 0.64168,25.93988 1.55018,35.73825 0.90691,9.78131 2.24006,20.35142 4.74715,29.89962 1.13359,4.31729 2.79799,8.47746 4.19699,12.71619 5.25323,10.1512 6.02857,13.33529 13.98015,21.83916 10.68896,11.4314 24.72524,19.60732 38.90389,25.88075 5.58087,2.4693 11.39122,4.38342 17.08683,6.57513 5.89191,1.55817 11.70735,3.44126 17.67574,4.67451 10.90889,2.25413 20.58418,3.12508 31.64801,2.81361 3.98293,-0.11213 7.9476,-0.61842 11.90248,-1.10339 2.81472,-0.34517 6.58492,-3.56944 8.39386,-1.3855 1.56257,1.88649 -3.81414,3.0748 -5.72121,4.6122 0.83475,-0.42946 1.77107,-0.70214 2.50425,-1.28839 2.57961,-2.06266 0.78326,-6.00501 -0.0553,-8.41905 -2.6434,-5.34033 -6.5623,-9.30058 -11.34384,-12.8244 -4.82625,-3.40744 -9.88294,-6.46768 -14.8027,-9.73689 -8.4471,-4.72913 -17.46329,-8.36853 -26.84254,-10.80063 -4.55843,-1.032 -7.00248,-1.6935 -11.62162,-2.31571 -4.84267,-0.65231 -9.62575,-0.56269 -14.48836,-0.70595 -1.06432,-0.0314 -2.12601,-0.12288 -3.18902,-0.18431 -1.75164,-0.32276 -2.64278,-0.29081 -4.12913,-1.22186 -1.04517,-0.65469 -1.82905,-1.75996 -2.60314,-2.67094 -1.92518,-2.26563 -2.26889,-2.65101 -4.37788,-5.09002 -3.08291,-3.47308 -3.72848,-4.29387 -7.13165,-7.71051 -4.84257,-4.86173 -10.09952,-9.30372 -14.72131,-14.38702 -1.90787,-2.33935 -2.46347,-2.78737 -3.87492,-5.37604 -2.12516,-3.89764 -3.23187,-8.24702 -4.70324,-12.40352 -2.84289,-8.53357 -5.48498,-17.14473 -8.88665,-25.4793 -2.31399,-5.77548 -4.53575,-11.86077 -7.98364,-17.0877 -2.12148,-3.2161 -2.95226,-3.74055 -5.69126,-6.41619 -1.25032,-0.86785 -2.42848,-1.85022 -3.75097,-2.60354 -9.48126,-5.4008 -20.85248,-5.68083 -31.45183,-5.57803 -11.41295,0.77502 -22.91932,1.70548 -33.7775,5.59255 -2.67126,0.98939 -5.2958,2.01172 -7.87278,3.22794 -0.50207,0.23695 -1.96842,1.02524 -1.49222,0.73983 12.95083,-7.76205 13.32258,-8.02968 9.46268,-5.46793 0,0 -12.51776,4.97813 -12.51776,4.97813 z"
       inkscape:connector-curvature="0" />
    <path
       style="fill:#000000;fill-opacity:0;stroke:none;stroke-width:5.76900005;stroke-miterlimit:4;stroke-dasharray:none;stroke-opacity:1"
       id="path4152"
       d="m 440.5331,324.1465 c -0.56449,0.5212 -1.15811,1.01254 -1.69348,1.56361 -2.77962,2.86117 -5.66861,6.32198 -8.14355,9.32704 -8.5584,10.39158 -16.44186,21.21838 -24.31507,32.13299 -15.49825,21.91369 -30.82307,43.9834 -44.76823,66.93014 -2.44717,4.02681 -4.7961,8.11251 -7.19415,12.16876 -8.00598,13.966 -15.66803,28.17028 -22.17897,42.90528 -3.73554,8.45396 -4.79922,11.58812 -8.06265,20.17267 -5.30917,14.83404 -9.69028,30.00619 -12.50032,45.51414 -0.88812,5.03238 -1.27195,10.12381 -1.34184,15.22669 0.13839,2.36135 -0.71957,5.66023 1.25207,7.5447 2.006,1.91731 4.95005,2.33058 7.4394,3.08838 23.21298,4.65302 46.98763,2.69735 70.19753,-0.91019 7.12837,-1.10797 14.20415,-2.53127 21.30622,-3.79691 32.2478,-6.30359 64.19085,-14.03525 96.32101,-20.8891 2.25705,-0.26663 13.47286,-3.30384 14.8187,0.8757 0.8987,2.79092 -1.42652,5.16765 -2.64715,7.23891 -1.83103,2.13003 -3.54529,4.36628 -5.49307,6.39009 -16.63124,17.28042 -37.32293,30.50946 -59.02464,40.4921 -6.42104,2.95363 -13.24812,4.92973 -19.87217,7.39459 -7.27985,1.95113 -14.45096,4.36614 -21.83954,5.85339 -22.22547,4.47376 -44.77067,5.12666 -66.06678,-3.95916 -19.2183,-8.19934 -22.21196,-13.94053 -36.94028,-28.44562 -4.63923,-7.33388 -10.04839,-14.23396 -13.91769,-22.00163 -8.87542,-17.81756 -14.36887,-38.95691 -17.94764,-58.34226 -4.47175,-24.22238 -6.06692,-43.48559 -5.00052,-68.11995 0.46915,-10.83767 2.20773,-21.58303 3.3116,-32.37455 1.89978,-9.4511 3.48889,-18.97001 5.69934,-28.35332 1.8248,-7.74626 4.06287,-15.39367 6.39845,-23.00153 4.08011,-13.29048 9.06342,-26.54403 15.25775,-39.0135 0.9359,-1.88402 2.01334,-3.69434 3.02001,-5.54151 0.63571,-1.05908 1.27143,-2.11816 1.90714,-3.17725 0,0 11.29974,-4.91424 11.29974,-4.91424 l 0,0 c -0.91292,1.15604 -1.82585,2.31207 -2.73877,3.46811 -1.35389,1.97385 -2.7997,3.8877 -4.06169,5.92154 -7.88621,12.70948 -14.39802,26.84752 -19.56387,40.83632 -2.87763,7.79243 -5.62822,15.64745 -7.85137,23.65121 -2.63935,9.50216 -4.48068,19.20813 -6.72103,28.81219 -1.26154,10.85864 -3.2425,21.6577 -3.78464,32.57592 -1.21547,24.47838 0.56928,43.78563 5.59435,67.73287 3.97036,18.92091 10.43326,40.02862 19.62126,57.24541 4.06984,7.62622 9.5862,14.38735 14.3793,21.58103 14.87173,14.11634 18.17057,19.89712 37.28063,27.86626 20.99034,8.75322 43.8661,8.3313 65.73025,3.78565 7.50026,-1.55933 14.75993,-4.10931 22.13989,-6.16397 8.05753,-3.11281 22.64891,-8.07749 31.1369,-13.145 11.92204,-7.11771 23.07951,-15.99439 32.37353,-26.33229 1.64332,-1.82789 3.04373,-3.86036 4.56559,-5.79054 0.14019,-0.23487 2.81733,-3.97988 2.6011,-5.37501 -0.46644,-3.00944 -11.12176,-1.24921 -12.31283,-1.13792 -31.16185,4.98111 -61.93015,12.06878 -92.8601,18.2706 -7.22333,1.34527 -14.42409,2.81791 -21.66998,4.03579 -24.54273,4.12513 -49.58781,6.85736 -74.39822,3.45574 -3.46466,-0.83996 -6.23288,-0.87591 -8.87271,-3.32283 -2.19804,-2.0374 -1.61083,-5.46961 -1.71612,-8.09763 0.1089,-5.39446 0.96374,-10.70279 2.25498,-15.94366 3.73353,-15.74959 8.5417,-31.22591 14.05179,-46.44313 3.1178,-8.10304 4.62888,-12.34261 8.18434,-20.30886 6.6799,-14.96679 14.73066,-29.28028 23.0314,-43.39355 2.48223,-4.10069 4.9197,-8.2288 7.44668,-12.30206 14.17034,-22.84131 29.63422,-44.8377 44.82285,-67.00298 7.18086,-10.46435 14.3689,-20.89886 21.86671,-31.13892 2.15488,-2.943 4.24353,-5.93789 6.51421,-8.7925 0.38638,-0.48574 0.8334,-0.91997 1.2501,-1.37996 0,0 12.42425,-5.14629 12.42425,-5.14629 z"
       inkscape:connector-curvature="0" />
    <path
       style="fill:#000000;fill-opacity:0;stroke:none;stroke-width:1.03400004;stroke-miterlimit:4;stroke-dasharray:none;stroke-opacity:1"
       id="path4154"
       d="m 203.40086,404.7854 c 4.21617,-2.44682 8.3617,-5.01962 12.6485,-7.34047 2.04573,-1.10755 8.21837,-1.95776 10.28967,-2.20397 5.17395,-0.615 8.25236,-0.70153 13.59572,-1.01032 12.16564,-0.54247 24.45042,-1.05484 36.48191,1.28053 8.72576,1.69371 9.58814,2.47795 17.86632,5.74379 2.88451,1.67089 5.89435,3.14208 8.65354,5.01268 15.81034,10.7187 27.3515,26.89201 38.45938,42.10329 6.47392,9.89929 13.83462,19.571 18.26704,30.63413 0.75758,2.85111 1.51382,6.0135 0.72986,8.95364 -0.42746,1.60311 -0.90826,2.14968 -1.76166,3.49816 -1.23708,1.49598 -0.62011,0.82048 -1.82944,2.04589 0,0 -12.26365,5.00373 -12.26365,5.00373 l 0,0 c 1.39201,-1.11503 0.68259,-0.49952 2.11153,-1.86564 3.43883,-4.11258 2.79633,-6.43317 1.84237,-11.4736 -3.22224,-11.41767 -9.39855,-21.76615 -15.67032,-31.73331 -2.15474,-3.0675 -4.22477,-6.19628 -6.4642,-9.2025 -9.0507,-12.14969 -19.27126,-24.02584 -32.1254,-32.29942 -2.78606,-1.79325 -5.80464,-3.1965 -8.70695,-4.79474 -8.01078,-3.02959 -9.35193,-3.9423 -17.74846,-5.52684 -12.15311,-2.29346 -24.54914,-1.63113 -36.80344,-0.76401 -6.45667,0.60681 -12.92926,1.09868 -19.23795,2.70113 -1.2151,0.30864 -2.41175,0.69307 -3.58986,1.12176 -0.80369,0.29245 -3.06885,1.49578 -2.34627,1.03827 3.28684,-2.08111 6.705,-3.94718 10.05751,-5.92077 0,0 -12.45575,4.99859 -12.45575,4.99859 z"
       inkscape:connector-curvature="0" />
    <path
       style="fill:#000000;fill-opacity:0;stroke:none;stroke-width:1.03400004;stroke-miterlimit:4;stroke-dasharray:none;stroke-opacity:1"
       d="m 289.58587,662.6184 c -42.87771,-24.75307 -55.32709,-32.13459 -55.58921,-32.96011 -0.46544,-1.46589 -25.84025,-231.06178 -25.56701,-231.33502 0.27704,-0.27705 15.36316,9.75677 15.81941,10.52153 0.18529,0.31059 1.99417,1.6278 4.01974,2.92715 6.24761,4.00767 63.11572,41.70393 90.43774,59.94861 l 25.91685,17.30636 0.13879,102.63656 c 0.0763,56.45012 0.12447,102.68488 0.10696,102.74392 -0.0175,0.059 -24.89498,-14.246 -55.28327,-31.789 z"
       id="path4207"
       inkscape:connector-curvature="0" />
    <path
       style="fill:#000000;fill-opacity:0;stroke:none;stroke-width:1.03400004;stroke-miterlimit:4;stroke-dasharray:none;stroke-opacity:1"
       d="m 289.58587,662.6184 c -42.87771,-24.75307 -55.32709,-32.13459 -55.58921,-32.96011 -0.46544,-1.46589 -25.84025,-231.06178 -25.56701,-231.33502 0.27704,-0.27705 15.36316,9.75677 15.81941,10.52153 0.18529,0.31059 1.99417,1.6278 4.01974,2.92715 6.24761,4.00767 63.11572,41.70393 90.43774,59.94861 l 25.91685,17.30636 0.13879,102.63656 c 0.0763,56.45012 0.12447,102.68488 0.10696,102.74392 -0.0175,0.059 -24.89498,-14.246 -55.28327,-31.789 z"
       id="path4209"
       inkscape:connector-curvature="0" />
    <g
       id="g4376"
       transform="translate(-84.825277,141.68029)">
      <g
         id="g4293">
        <g
           id="g4328">
          <path
             sodipodi:nodetypes="ccsscc"
             inkscape:connector-curvature="0"
             id="path4156"
             d="m 300.02969,245.41304 36.18125,-17.38263 c 0,0 92.18745,16.49256 119.14777,74.38691 5.39042,11.57534 1.85425,17.6441 1.40299,33.44433 l -0.40652,14.23369 z"
             style="fill:#d3d3d3;fill-opacity:1;fill-rule:evenodd;stroke:none;stroke-width:1.03400004;stroke-linecap:butt;stroke-linejoin:miter;stroke-miterlimit:4;stroke-dasharray:none;stroke-opacity:1" />
          <path
             style="fill:#d3d3d3;fill-opacity:1;fill-rule:evenodd;stroke:none;stroke-width:1.03400004;stroke-linecap:butt;stroke-linejoin:miter;stroke-miterlimit:4;stroke-dasharray:none;stroke-opacity:1"
             d="m 612.08464,243.75611 -36.18125,-17.38263 c 0,0 -94.36485,17.11483 -120.38566,76.59556 -4.89027,11.1786 -0.59356,16.23389 -0.1651,31.23568 l 0.40652,14.23369 z"
             id="path4213"
             inkscape:connector-curvature="0"
             sodipodi:nodetypes="ccsscc" />
          <path
             sodipodi:nodetypes="cccssccsscc"
             inkscape:connector-curvature="0"
             id="path4282"
             d="m 352.4794,244.02174 c -2.11234,0.0429 -2.56773,0.53446 -2.56773,0.53446 l -0.0994,0.0704 c 0,0 3.83703,0.67033 11.09674,1.8697 7.25972,1.19938 17.56052,4.53633 29.49528,12.41974 11.50255,7.59791 30.40757,21.34279 40.16412,38.62002 l -0.21994,-1.43126 c -10.08897,-17.86589 -26.87352,-31.55182 -38.56527,-39.2747 -12.22933,-8.07799 -22.84725,-11.36645 -30.42968,-12.61914 -3.79122,-0.62635 -6.76177,-0.23205 -8.87412,-0.1892 z"
             style="color:#000000;font-style:normal;font-variant:normal;font-weight:normal;font-stretch:normal;font-size:medium;line-height:normal;font-family:sans-serif;text-indent:0;text-align:start;text-decoration:none;text-decoration-line:none;text-decoration-style:solid;text-decoration-color:#000000;letter-spacing:normal;word-spacing:normal;text-transform:none;direction:ltr;block-progression:tb;writing-mode:lr-tb;baseline-shift:baseline;text-anchor:start;white-space:normal;clip-rule:nonzero;display:inline;overflow:visible;visibility:visible;opacity:1;isolation:auto;mix-blend-mode:normal;color-interpolation:sRGB;color-interpolation-filters:linearRGB;solid-color:#000000;solid-opacity:1;fill:#bcbcbc;fill-opacity:1;fill-rule:evenodd;stroke:#555555;stroke-width:0;stroke-linecap:butt;stroke-linejoin:miter;stroke-miterlimit:4;stroke-dasharray:none;stroke-dashoffset:0;stroke-opacity:1;color-rendering:auto;image-rendering:auto;shape-rendering:auto;text-rendering:auto;enable-background:accumulate" />
          <path
             style="color:#000000;font-style:normal;font-variant:normal;font-weight:normal;font-stretch:normal;font-size:medium;line-height:normal;font-family:sans-serif;text-indent:0;text-align:start;text-decoration:none;text-decoration-line:none;text-decoration-style:solid;text-decoration-color:#000000;letter-spacing:normal;word-spacing:normal;text-transform:none;direction:ltr;block-progression:tb;writing-mode:lr-tb;baseline-shift:baseline;text-anchor:start;white-space:normal;clip-rule:nonzero;display:inline;overflow:visible;visibility:visible;opacity:1;isolation:auto;mix-blend-mode:normal;color-interpolation:sRGB;color-interpolation-filters:linearRGB;solid-color:#000000;solid-opacity:1;fill:#bcbcbc;fill-opacity:1;fill-rule:evenodd;stroke:#555555;stroke-width:0;stroke-linecap:butt;stroke-linejoin:miter;stroke-miterlimit:4;stroke-dasharray:none;stroke-dashoffset:0;stroke-opacity:1;color-rendering:auto;image-rendering:auto;shape-rendering:auto;text-rendering:auto;enable-background:accumulate"
             d="m 577.34749,237.89949 c 2.95765,0.0485 3.59527,0.60442 3.59527,0.60442 l 0.13918,0.0796 c 0,0 -5.37251,0.75807 -15.53736,2.11443 -10.16487,1.35637 -24.58776,5.1301 -41.29849,14.04539 -16.10556,8.59243 -42.57586,24.13641 -56.23672,43.67511 l 0.30796,-1.61861 c 14.1263,-20.2044 37.62757,-35.68172 53.99805,-44.41547 17.12317,-9.13533 31.99009,-12.85423 42.60681,-14.27089 5.30836,-0.70834 9.46765,-0.26243 12.4253,-0.21397 z"
             id="path4288"
             inkscape:connector-curvature="0"
             sodipodi:nodetypes="cccssccsscc" />
          <path
             style="color:#000000;font-style:normal;font-variant:normal;font-weight:normal;font-stretch:normal;font-size:medium;line-height:normal;font-family:sans-serif;text-indent:0;text-align:start;text-decoration:none;text-decoration-line:none;text-decoration-style:solid;text-decoration-color:#000000;letter-spacing:normal;word-spacing:normal;text-transform:none;direction:ltr;block-progression:tb;writing-mode:lr-tb;baseline-shift:baseline;text-anchor:start;white-space:normal;clip-rule:nonzero;display:inline;overflow:visible;visibility:visible;opacity:1;isolation:auto;mix-blend-mode:normal;color-interpolation:sRGB;color-interpolation-filters:linearRGB;solid-color:#000000;solid-opacity:1;fill:#bcbcbc;fill-opacity:1;fill-rule:evenodd;stroke:#555555;stroke-width:0;stroke-linecap:butt;stroke-linejoin:miter;stroke-miterlimit:4;stroke-dasharray:none;stroke-dashoffset:0;stroke-opacity:1;color-rendering:auto;image-rendering:auto;shape-rendering:auto;text-rendering:auto;enable-background:accumulate"
             d="m 365.56898,258.8423 c -1.01045,0.0166 -1.22828,0.20675 -1.22828,0.20675 l -0.0475,0.0273 c 0,0 1.83545,0.25932 5.30816,0.7233 3.4727,0.46399 8.40011,1.75491 14.10914,4.80466 5.50227,2.9393 14.54554,8.2566 19.21262,14.9404 l -0.10518,-0.55369 c -4.82608,-6.91153 -12.85501,-12.20603 -18.44779,-15.19367 -5.84993,-3.12503 -10.92904,-4.39719 -14.55612,-4.88179 -1.81354,-0.24231 -3.23451,-0.0898 -4.24496,-0.0732 z"
             id="path4290"
             inkscape:connector-curvature="0"
             sodipodi:nodetypes="cccssccsscc" />
          <path
             sodipodi:nodetypes="cccssccsscc"
             inkscape:connector-curvature="0"
             id="path4436"
             d="m 533.31763,266.99142 c 1.72672,-0.0177 2.09896,0.36901 2.09896,0.36901 l 0.0812,0.0548 c 0,0 -3.13652,0.6381 -9.0709,1.7896 -5.93435,1.15152 -14.3546,4.10973 -24.11053,10.79073 -9.4026,6.43903 -24.85628,18.04026 -32.83166,32.27537 l 0.17974,-1.16465 c 8.24709,-14.72012 21.9674,-26.22101 31.52467,-32.76593 9.99671,-6.84591 18.67619,-9.77271 24.87436,-10.97539 3.09909,-0.60137 5.52732,-0.35578 7.25404,-0.37344 z"
             style="color:#000000;font-style:normal;font-variant:normal;font-weight:normal;font-stretch:normal;font-size:medium;line-height:normal;font-family:sans-serif;text-indent:0;text-align:start;text-decoration:none;text-decoration-line:none;text-decoration-style:solid;text-decoration-color:#000000;letter-spacing:normal;word-spacing:normal;text-transform:none;direction:ltr;block-progression:tb;writing-mode:lr-tb;baseline-shift:baseline;text-anchor:start;white-space:normal;clip-rule:nonzero;display:inline;overflow:visible;visibility:visible;opacity:1;isolation:auto;mix-blend-mode:normal;color-interpolation:sRGB;color-interpolation-filters:linearRGB;solid-color:#000000;solid-opacity:1;fill:#bcbcbc;fill-opacity:1;fill-rule:evenodd;stroke:#555555;stroke-width:0;stroke-linecap:butt;stroke-linejoin:miter;stroke-miterlimit:4;stroke-dasharray:none;stroke-dashoffset:0;stroke-opacity:1;color-rendering:auto;image-rendering:auto;shape-rendering:auto;text-rendering:auto;enable-background:accumulate" />
        </g>
      </g>
      <g
         style="fill:#dac261;fill-opacity:1"
         id="g4352"
         transform="translate(0,-8)">
        <path
           style="fill:#dac261;fill-opacity:1;fill-rule:evenodd;stroke:none;stroke-width:1px;stroke-linecap:butt;stroke-linejoin:miter;stroke-opacity:1"
           d="M 454.98361,356.23728 434.39912,548.24121 308.1155,475.27559 282.08984,240.67144 Z"
           id="path4140"
           inkscape:connector-curvature="0"
           sodipodi:nodetypes="ccccc" />
        <path
           inkscape:connector-curvature="0"
           id="path4142"
           d="M 455.59809,355.87715 483.5965,544.10463 602.4662,474.91546 628.49186,240.31131 Z"
           style="fill:#dac261;fill-opacity:1;fill-rule:evenodd;stroke:none;stroke-width:1px;stroke-linecap:butt;stroke-linejoin:miter;stroke-opacity:1"
           sodipodi:nodetypes="ccccc" />
      </g>
      <path
         sodipodi:nodetypes="ccsccsc"
         inkscape:connector-curvature="0"
         id="path4203"
         d="m 420.79367,325.48674 -0.34811,206.72377 c 0,0 19.94839,14.32387 33.35646,14.34661 12.46433,0.0211 33.93236,-12.8215 33.93236,-12.8215 l 2.33801,-208.89171 c 0,0 -22.97898,8.42944 -34.97809,8.50863 -11.73007,0.0774 -34.30063,-7.8658 -34.30063,-7.8658 z"
         style="fill:#ca6565;fill-opacity:1;fill-rule:evenodd;stroke:none;stroke-width:1px;stroke-linecap:butt;stroke-linejoin:miter;stroke-opacity:1" />
    </g>
  </g>
  <g
     inkscape:groupmode="layer"
     id="layer3"
     inkscape:label="libro"
     transform="translate(-128.24367,-253.817)" />
</svg>
